<svg width="14" height="15" viewBox="0 0 14 15" fill="none" xmlns="http://www.w3.org/2000/svg">
<path fill-rule="evenodd" clip-rule="evenodd" d="M7.00007 5.73333C8.08623 5.73333 8.96673 4.85283 8.96673 3.76667C8.96673 2.68051 8.08623 1.8 7.00007 1.8C5.91391 1.8 5.0334 2.68051 5.0334 3.76667C5.0334 4.85283 5.91391 5.73333 7.00007 5.73333ZM7.00007 7.03333C8.8042 7.03333 10.2667 5.5708 10.2667 3.76667C10.2667 1.96254 8.8042 0.5 7.00007 0.5C5.19593 0.5 3.7334 1.96254 3.7334 3.76667C3.7334 5.5708 5.19593 7.03333 7.00007 7.03333Z" fill="white"/>
<path d="M7 9.21319C8.15428 9.21319 9.434 9.36823 10.5 9.83542C11.834 10.4201 12.8333 11.3701 12.8333 11.7021V13.2576H1.16667V11.7021C1.16667 11.3463 2.31433 10.4363 3.79167 9.83542C4.79449 9.42751 5.94922 9.21319 7 9.21319ZM7 7.96875C4.66375 7.96875 0 9.21942 0 11.7021V13.5646C0 14.0824 0.419733 14.5021 0.9375 14.5021H13.0625C13.5803 14.5021 14 14.0824 14 13.5646V11.7021C14 9.21942 9.33625 7.96875 7 7.96875Z" fill="white"/>
</svg>
